<svg width="40" height="40" fill="none" xmlns="http://www.w3.org/2000/svg" viewBox="0 0 48 48">
    <g data-name="25-server">
        <path d="M31 22H5a4.986 4.986 0 0 1-2.939-9.024 7.989 7.989 0 0 1 8.973-8.906 8 8 0 0 1 13.932 0 7.989 7.989 0 0 1 8.973 8.906A4.986 4.986 0 0 1 31 22zM10 6a6 6 0 0 0-5.865 7.261 1 1 0 0 1-.514 1.094A2.988 2.988 0 0 0 5 20h26a2.988 2.988 0 0 0 1.379-5.645 1 1 0 0 1-.514-1.094 5.993 5.993 0 0 0-7.23-7.1 1 1 0 0 1-1.142-.571 6 6 0 0 0-10.986 0 1 1 0 0 1-1.142.571A6.086 6.086 0 0 0 10 6zM47 48H21a1 1 0 0 1-1-1v-8a1 1 0 0 1 1-1h26a1 1 0 0 1 1 1v8a1 1 0 0 1-1 1zm-25-2h24v-6H22zM47 36H21a1 1 0 0 1-1-1v-8a1 1 0 0 1 1-1h26a1 1 0 0 1 1 1v8a1 1 0 0 1-1 1zm-25-2h24v-6H22z" fill="url(#paint0_linear)"/>
        <path d="M21 44h-5a1 1 0 0 1-1-1V31a1 1 0 0 1 1-1h5v2h-4v10h4z" fill="url(#paint1_linear)"/>
        <path d="M16 38h-5a3 3 0 0 1-3-3V24a1 1 0 0 1 1.707-.707l3 3-1.414 1.414L10 26.414V35a1 1 0 0 0 1 1h5z" fill="url(#paint2_linear)"/>
        <path d="m5.293 26.293 3-3 1.414 1.414-3 3zM43 25a1 1 0 0 1-.707-.293l-3-3 1.414-1.414L42 21.586V19a1 1 0 0 0-1-1h-6v-2h6a3 3 0 0 1 3 3v5a1 1 0 0 1-.617.924A.987.987 0 0 1 43 25z" fill="url(#paint3_linear)"/>
        <path d="m42.293 23.292 3-3 1.415 1.414-3 3zM24 30h2v2h-2zM28 30h16v2H28zM24 42h2v2h-2zM28 42h16v2H28zM23 8h-2a3 3 0 0 0-3-3V3a5.006 5.006 0 0 1 5 5zM27 13h7v2h-7zM23 13h2v2h-2zM8 12H6a4 4 0 0 1 4-4v2a2 2 0 0 0-2 2z" fill="url(#paint4_linear)"/>
    </g>
    <defs>
    <linearGradient id="paint0_linear" x1="2.12767" y1="1" x2="30.7018" y2="17.5237" gradientUnits="userSpaceOnUse">
      <stop offset="0.259336" stop-color="hsl(228, 100%, 76%)"/>
      <stop offset="1" stop-color="hsl(228, 100%, 72%)"/>
    </linearGradient>
    <linearGradient id="paint1_linear" x1="1.59976" y1="8.08974e-07" x2="31.8368" y2="17.6727" gradientUnits="userSpaceOnUse">
      <stop offset="0.259336" stop-color="hsl(228, 100%, 76%)"/>
      <stop offset="1" stop-color="hsl(228, 100%, 72%)"/>
    </linearGradient>
    <linearGradient id="paint2_linear" x1="1.59976" y1="8.08974e-07" x2="31.8368" y2="17.6727" gradientUnits="userSpaceOnUse">
      <stop offset="0.259336" stop-color="hsl(228, 100%, 76%)"/>
      <stop offset="1" stop-color="hsl(228, 100%, 72%)"/>
    </linearGradient>
    <linearGradient id="paint3_linear" x1="1.59976" y1="8.08974e-07" x2="31.8368" y2="17.6727" gradientUnits="userSpaceOnUse">
      <stop offset="0.259336" stop-color="hsl(228, 100%, 76%)"/>
      <stop offset="1" stop-color="hsl(228, 100%, 72%)"/>
    </linearGradient>
    <linearGradient id="paint4_linear" x1="1.59976" y1="8.08974e-07" x2="31.8368" y2="17.6727" gradientUnits="userSpaceOnUse">
      <stop offset="0.259336" stop-color="hsl(228, 100%, 76%)"/>
      <stop offset="1" stop-color="hsl(228, 100%, 72%)"/>
    </linearGradient>
  </defs>
</svg>
