<svg width="100" height="100" xmlns="http://www.w3.org/2000/svg" role="img" viewBox="0 0 22 22" fill="none" stroke="hsl(228, 100%, 72%)" stroke-width="2" stroke-linecap="round" stroke-linejoin="round" class="feather feather-github">
    <title>GitHub</title>
    <path d="M9 19c-5 1.5-5-2.5-7-3m14 6v-3.87a3.37 3.37 0 0 0-.94-2.61c3.14-.35 6.44-1.54 6.44-7A5.44 5.44 0 0 0 20 4.77 5.07 5.07 0 0 0 19.91 1S18.73.65 16 2.48a13.38 13.38 0 0 0-7 0C6.27.65 5.09 1 5.09 1A5.07 5.07 0 0 0 5 4.77a5.44 5.44 0 0 0-1.5 3.78c0 5.42 3.3 6.61 6.44 7A3.37 3.37 0 0 0 9 18.13V22" fill="url(#paint0_linear)">
    </path>
    <defs>
    <!-- <linearGradient id="paint0_linear" x1="2.12767" y1="1" x2="30.7018" y2="17.5237" gradientUnits="userSpaceOnUse">
      <stop offset="0.259336" stop-color="hsl(228, 100%, 76%)"/>
      <stop offset="1" stop-color="hsl(228, 100%, 72%)"/>
    </linearGradient> -->
    </defs>
</svg>